<svg id="Layer_1" data-name="Layer 1" xmlns="http://www.w3.org/2000/svg" width="346" height="84" viewBox="0 0 346 84">
    <title>logo-header</title>
    <path d="M74.61,46.38c-.85,0-3.83.11-4.51.11v-.83a2.66,2.66,0,0,0,2.07-2.45V34.08H57.64v9.17a2.77,2.77,0,0,0,2.18,2.41v.79c-.68,0-3.73-.11-4.58-.11s-3.6.11-4.28.11v-.79A2.67,2.67,0,0,0,53,43.21V24.11A2.78,2.78,0,0,0,51,21.66v-.79c.68,0,3.54.13,4.28.13s3.9-.13,4.58-.13v.79a2.8,2.8,0,0,0-2.18,2.45v7.52H72.17V24.11a2.62,2.62,0,0,0-2.07-2.45v-.79c.68,0,3.66.13,4.51.13s3.67-.13,4.34-.13v.79a2.78,2.78,0,0,0-2.14,2.45V43.25A2.77,2.77,0,0,0,79,45.66v.79c-.67,0-3.61-.11-4.34-.11"
          transform="translate(47.98 11.67)"/>
    <path d="M106,45.83c-1,.66-2.25,1.7-2.25,1.7a8.22,8.22,0,0,1-2.77-4.7A12.68,12.68,0,0,1,92,46.92c-5.24,0-7.5-3.35-7.5-7.45V27.38c0-1.95-1.09-2.87-3.11-3.31v-.66l7.09-2.77h.66V36.05c0,4.33.91,7.75,5.26,7.75a8.7,8.7,0,0,0,6.34-3.35V27.38c0-1.95-1.1-2.87-3.12-3.31v-.66l7.09-2.77h.68V41.12c0,2,.6,2.45,1.38,2.45a3.45,3.45,0,0,0,1.38-.25l.43,1s-1.27.68-2.56,1.54"
          transform="translate(47.98 11.67)"/>
    <path d="M146.63,46.38c-.78,0-4.15.11-4.94.11v-.72c1.28-.55,2.69-1.23,2.69-2.38V31.47c0-4.34-.25-7.76-4.58-7.76a9.4,9.4,0,0,0-6.23,2.77,12.85,12.85,0,0,1,0,1.52V43.39c0,1.2,1.29,1.76,2.77,2.38v.72c-.8,0-4.35-.11-5.14-.11s-4.15.11-4.94.11v-.72c1.28-.55,2.69-1.23,2.69-2.38V31.47c0-4.34-.25-7.76-4.58-7.76a8.16,8.16,0,0,0-6.1,3.35V43.39c0,1.2,1.27,1.76,2.76,2.38v.72c-.78,0-4.33-.11-5.12-.11s-4.22.11-5,.11v-.72c1.29-.55,2.7-1.23,2.7-2.38v-16c0-1.95-1.11-2.88-3.13-3.31v-.66l6.92-2.77h.66l.25,4c2.2-2.08,4.71-4,8.49-4s5.53,1.64,6.29,4a13.5,13.5,0,0,1,9.09-4c5.25,0,6.84,3.36,6.84,7.45v15.3c0,1.2,1.29,1.76,2.77,2.38v.72c-.81,0-4.35-.11-5.14-.11"
          transform="translate(47.98 11.67)"/>
    <path d="M174.65,45.83c-1,.66-2.25,1.7-2.25,1.7a10.09,10.09,0,0,1-2.51-3.85A10.59,10.59,0,0,1,162,46.92c-4.63,0-7.93-2.2-7.93-7.15,0-4.63,4.39-7,8.84-7.82,1.24-.18,5.14-.24,6.48-.24v-4c0-2.77-1.7-5-5.44-5a7,7,0,0,0-6.46,4h-.8v-5a29.92,29.92,0,0,1,8.62-1.21c7.26,0,8.72,3.72,8.72,7.82v12.7c0,2,.6,2.45,1.38,2.45a3.63,3.63,0,0,0,1.38-.25l.43,1s-1.28.68-2.57,1.54m-5.25-12.16h-3.59c-3.62,0-6.78,1.95-6.78,5.85A4.15,4.15,0,0,0,162.88,44h.32a7.38,7.38,0,0,0,6.17-3.42Z"
          transform="translate(47.98 11.67)"/>
    <path d="M200.86,46.38c-.8,0-4.22.11-5,.11v-.72c1.29-.55,2.68-1.23,2.68-2.38V31.47c0-4.34-1.71-7.76-6-7.76a8.68,8.68,0,0,0-6.35,3.35V43.39c0,1.2,1.27,1.76,2.77,2.38v.72c-.79,0-4.33-.11-5.14-.11s-4.15.11-4.94.11v-.72c1.29-.55,2.69-1.23,2.69-2.38v-16c0-1.95-1.1-2.88-3.12-3.31v-.66l6.84-2.77H186l.25,4a12.47,12.47,0,0,1,8.71-4c5.26,0,8.31,3.36,8.31,7.45v15.3c0,1.2,1.28,1.76,2.76,2.38v.72c-.78,0-4.33-.11-5.12-.11"
          transform="translate(47.98 11.67)"/>
    <path d="M213.8,46.38c-.79,0-4.15.11-4.94.11v-.72c1.27-.55,2.69-1.23,2.69-2.38v-16c0-1.95-1.11-2.88-3.12-3.31v-.66l7.09-2.77h.66V43.39c0,1.2,1.29,1.76,2.77,2.38v.72c-.79,0-4.33-.11-5.12-.11"
          transform="translate(47.98 11.67)"/>
    <path d="M230.84,46.92c-2.94,0-5.8-1.39-5.8-7.15V23.34h-3.78V21.88l3.29-1A11.7,11.7,0,0,0,227.67,14h2v7h7.52v2.31h-7.52V39c0,3.22,1,4.33,2.94,4.33a5,5,0,0,0,3.79-1.78l1,.91c-.67,1.29-3.06,4.46-6.53,4.46"
          transform="translate(47.98 11.67)"/>
    <path d="M245.49,46.38c-.79,0-4.15.11-4.94.11v-.72c1.29-.55,2.68-1.23,2.68-2.38v-16c0-1.95-1.09-2.88-3.11-3.31v-.66l7.07-2.77h.68V43.39c0,1.2,1.29,1.76,2.77,2.38v.72c-.81,0-4.35-.11-5.14-.11"
          transform="translate(47.98 11.67)"/>
    <path d="M275.84,31.71H258.5c-.79,7,3.11,12.27,8.91,12.27,3.31,0,5.53-.54,7.08-2.13l1,1.16a11.22,11.22,0,0,1-8.94,3.91c-8.6,0-13.19-5.25-13.19-13.2s5.54-13.12,12.21-13.12,10.7,4.58,10.38,9.83a4,4,0,0,1-.18,1.28m-10.13-8.93c-4,0-6.41,3.74-6.92,6.86h12.33c.43-3.06-1.52-6.86-5.37-6.86"
          transform="translate(47.98 11.67)"/>
    <path d="M288.23,46.92a30,30,0,0,1-7.69-1.22V40.33h.79c1.71,3.06,3.67,4.39,6.83,4.39,3.49,0,5.39-1.28,5.39-3.55a3.19,3.19,0,0,0-2-3L284,34.4a6.43,6.43,0,0,1-4-6.11c0-5,4.52-7.69,9.34-7.69A30.39,30.39,0,0,1,297,21.81V27h-.79a7.68,7.68,0,0,0-6.78-4.23c-3,0-4.88,1.61-4.88,3.87,0,2,.73,2.92,2.76,3.9l7.7,3.73a5.53,5.53,0,0,1,3,5.13c0,4.82-3.79,7.51-9.77,7.51"
          transform="translate(47.98 11.67)"/>
    <path d="M52.57,5.93h2L57.3,10.5h0V5.93h1.38v6.58H56.9L54,7.83h0v4.68H52.65Z" transform="translate(47.98 11.67)"/>
    <path d="M62.56,5.93h1.19l2.86,6.58H65l-.57-1.39H61.86l-.55,1.39H59.72Zm.55,1.91-.79,2.05h1.61Z"
          transform="translate(47.98 11.67)"/>
    <path d="M68,7.22H66.1V5.93h5.19V7.22H69.42v5.29H68Z" transform="translate(47.98 11.67)"/>
    <path d="M72.28,5.93h1.39v6.58H72.28Z" transform="translate(47.98 11.67)"/>
    <path d="M78.51,5.76a3.33,3.33,0,0,1,3.54,3.1,2.28,2.28,0,0,1,0,.37,3.54,3.54,0,1,1-7.08,0,3.32,3.32,0,0,1,3.17-3.47Zm0,5.54a2,2,0,0,0,2-1.92V9.2a2,2,0,1,0-4.07,0,2,2,0,0,0,1.82,2.13h.21Z"
          transform="translate(47.98 11.67)"/>
    <path d="M83.31,5.93h2l2.77,4.57h0V5.93h1.38v6.58H87.64L84.78,7.83h0v4.68H83.4Z"
          transform="translate(47.98 11.67)"/>
    <path d="M93.3,5.93h1.21l2.85,6.58H95.73l-.57-1.39H92.61l-.54,1.39h-1.6Zm.57,1.91-.8,2.05h1.6Z"
          transform="translate(47.98 11.67)"/>
    <path d="M98.35,5.93h1.39v5.23h2.68v1.39H98.27Z" transform="translate(47.98 11.67)"/>
    <path d="M105.88,5.93h4.46V7.32h-3V8.53h2.91V9.92h-2.91V11.3h3.18v1.39h-4.62Z" transform="translate(47.98 11.67)"/>
    <path d="M111.94,5.93h2l2.77,4.57h0V5.93h1.38v6.58h-1.9L113.3,7.83h0v4.68h-1.45Z"
          transform="translate(47.98 11.67)"/>
    <path d="M119.77,5.93H122c2.11,0,3.89.9,3.89,3.31a3.37,3.37,0,0,1-3.42,3.29l-.28,0h-2.37Zm1.39,5.23h.75c1.38,0,2.35-.51,2.35-2s-1-1.89-2.26-1.89h-.7Z"
          transform="translate(47.98 11.67)"/>
    <path d="M130.28,5.76a3.33,3.33,0,0,1,3.54,3.1c0,.12,0,.24,0,.37a3.54,3.54,0,1,1-7.08,0,3.31,3.31,0,0,1,3.17-3.47Zm0,5.54a2,2,0,0,0,2.09-1.86V9.23a2,2,0,0,0-4.08-.34,1.93,1.93,0,0,0,0,.34,2,2,0,0,0,1.85,2.1h.14Z"
          transform="translate(47.98 11.67)"/>
    <path d="M134.4,5.93H136l1,4.15h0l1.38-4.15h1.38l1.39,4.33h0l1.1-4.33h1.46l-1.91,6.58h-1.29L139.15,8h0l-1.39,4.56h-1.23Z"
          transform="translate(47.98 11.67)"/>
    <path d="M144.63,5.93h2.18l1.51,4.29h0l1.52-4.29H152v6.58h-1.45v-5h0l-1.73,5h-1.1l-1.66-5h0v5h-1.38Z"
          transform="translate(47.98 11.67)"/>
    <path d="M153.7,5.93h4.47V7.32h-3V8.53H158V9.92h-2.85V11.3h3.18v1.39H153.7Z" transform="translate(47.98 11.67)"/>
    <path d="M159.78,5.93h2l2.77,4.57h0V5.93h1.39v6.58H164l-2.85-4.68h0v4.68h-1.38Z"
          transform="translate(47.98 11.67)"/>
    <path d="M168.88,7.22H167V5.93h5.19V7.22h-1.87v5.29H168.9Z" transform="translate(47.98 11.67)"/>
    <path d="M175.55,5.93H180V7.32h-3V8.7h2.77v1.38H177v2.57h-1.38Z" transform="translate(47.98 11.67)"/>
    <path d="M184.47,5.76A3.32,3.32,0,0,1,188,8.86c0,.12,0,.24,0,.37a3.55,3.55,0,0,1-7.09,0,3.32,3.32,0,0,1,3.18-3.47Zm0,5.54a2,2,0,0,0,2-1.92V9.2a2.08,2.08,0,1,0-4.15,0,2,2,0,0,0,1.81,2.13h.31Z"
          transform="translate(47.98 11.67)"/>
    <path d="M189.27,5.93h2.6c1.38,0,2.48.47,2.48,2A1.68,1.68,0,0,1,193,9.72l1.66,2.77h-1.73l-1.38-2.63h-.72v2.63h-1.38Zm1.38,2.77h.86c.52,0,1.22,0,1.22-.73s-.6-.77-1.12-.77h-1Z"
          transform="translate(47.98 11.67)"/>
    <path d="M199.11,7.22h-1.87V5.93h5.19V7.22h-1.88v5.29h-1.39Z" transform="translate(47.98 11.67)"/>
    <path d="M203.44,5.93h1.38V8.38h2.77V5.93H209v6.58h-1.38V9.66h-2.77v2.76h-1.38Z"
          transform="translate(47.98 11.67)"/>
    <path d="M210.8,5.93h4.47V7.32h-3V8.53h2.85V9.92h-2.85V11.3h3.14v1.39h-4.63Z" transform="translate(47.98 11.67)"/>
    <path d="M-1.53,30.33A4.48,4.48,0,0,1-6,34.82a4.48,4.48,0,0,1-4.48-4.49A4.48,4.48,0,0,1-6,25.84,4.47,4.47,0,0,1-1.53,30.3v0"
          transform="translate(47.98 11.67)" fill="#cfd494"/>
    <path d="M-8.78-9C-8.86-11.27-8-11.67-6-11.67s2.87.42,2.77,2.66L-5.16,18.37c-.07.62-.35,2-.89,2s-.82-1.39-.89-2Z"
          transform="translate(47.98 11.67)" fill="#cfd494"/>
    <path d="M19.88.59c1.5-1.69,2.4-1.39,3.79,0s1.73,2.29,0,3.79L3,22.38c-.48.38-1.63,1.15-2,.76s.39-1.55.76-2Z"
          transform="translate(47.98 11.67)" fill="#a9b533"/>
    <path d="M33.32,27.66c2.24-.14,2.64.75,2.64,2.77S35.5,33.2,33.32,33L6,31.17c-.63-.06-2-.34-2-.88s1.39-.82,2-.89Z"
          transform="translate(47.98 11.67)" fill="#a9b533"/>
    <path d="M23.73,56.24c1.67,1.48,1.38,2.39-.07,3.79s-2.3,1.73-3.79,0l-18-20.69c-.39-.48-1.15-1.63-.76-2s1.53.39,2,.76Z"
          transform="translate(47.98 11.67)" fill="#a9b533"/>
    <path d="M-3.24,69.69C-3.12,71.93-4,72.33-6,72.33s-2.85-.42-2.77-2.66l1.87-27.38c.08-.62.35-2,.89-2s.81,1.39.88,2Z"
          transform="translate(47.98 11.67)" fill="#a9b533"/>
    <path d="M-31.89,60.09c-1.49,1.66-2.4,1.38-3.8-.07s-1.72-2.3,0-3.79l20.67-18c.5-.37,1.65-1.13,2-.76s-.38,1.55-.76,2Z"
          transform="translate(47.98 11.67)" fill="#a9b533"/>
    <path d="M-45.34,33c-2.18.16-2.64-.74-2.64-2.71s.42-2.85,2.66-2.77l27.37,1.87c.61.07,2,.35,2,.89s-1.38.81-2,.88Z"
          transform="translate(47.98 11.67)" fill="#a9b533"/>
    <path d="M-35.73,4.42c-1.68-1.48-1.39-2.39,0-3.79s2.31-1.73,3.79,0l18,20.69c.37.48,1.15,1.64.76,2s-1.54-.39-2-.76Z"
          transform="translate(47.98 11.67)" fill="#a9b533"/>
    <path d="M-1.07,17.73c-.26.84-.34,1.74-.61,2.57s-.4,1-1.17.78c-1.24-.39.16-4.79.37-5.44C-.68,10,7.28,4.56,8.85-.44A5.31,5.31,0,0,0,5.55-7.2l-.09,0C2.93-8,1.88-6.52,1-6.81a.51.51,0,0,1-.29-.66h0c.39-1.22,3.1-3,8-1.39a7.71,7.71,0,0,1,5,9.61c-2.17,6.8-12,8.14-14.83,17"
          transform="translate(47.98 11.67)" fill="#a9b533"/>
    <path d="M6.44,24.89c-.78.41-1.48,1-2.25,1.38s-1,.45-1.38-.27c-.6-1.15,3.5-3.27,4.15-3.58,5.24-2.77,14.78-1,19.37-3.36a5.34,5.34,0,0,0,2.26-7.18c-1.22-2.35-3-2-3.48-2.86a.54.54,0,0,1,.28-.68c1.13-.6,4.3,0,6.68,4.67a7.72,7.72,0,0,1-3.22,10.37c-6.34,3.27-14.24-2.77-22.52,1.52"
          transform="translate(47.98 11.67)" fill="#a9b533"/>
    <path d="M6.58,35.27C5.74,35,4.84,34.93,4,34.65s-1-.39-.78-1.16c.39-1.24,4.79.18,5.44.37,5.63,1.8,11.07,9.76,16.07,11.34a5.33,5.33,0,0,0,6.76-3.33l0-.06c.82-2.53-.71-3.59-.42-4.49a.53.53,0,0,1,.67-.29c1.23.39,3,3.1,1.38,8a7.7,7.7,0,0,1-9.6,5.06c-6.8-2.18-8.14-12-17-14.85"
          transform="translate(47.98 11.67)" fill="#a9b533"/>
    <path d="M-.58,42.74C-1,42-1.58,41.26-2,40.48s-.44-1,.28-1.38c1.15-.59,3.26,3.51,3.58,4.15,2.7,5.25,1,14.79,3.35,19.39a5.33,5.33,0,0,0,7.13,2.43l.05,0c2.36-1.22,2-3,2.87-3.48a.53.53,0,0,1,.68.28c.59,1.13,0,4.3-4.67,6.69A7.71,7.71,0,0,1,.91,65.27C-2.36,58.93,3.68,51-.61,42.74"
          transform="translate(47.98 11.67)" fill="#a9b533"/>
    <path d="M-10.94,42.89c.25-.86.35-1.76.61-2.59s.39-1,1.17-.78c1.23.39-.17,4.8-.38,5.45C-11.34,50.6-19.22,56.11-20.87,61a5.34,5.34,0,0,0,3.33,6.77l.07,0c2.52.8,3.57-.71,4.47-.43a.54.54,0,0,1,.29.68c-.38,1.23-3.1,3-8,1.38a7.72,7.72,0,0,1-5.05-9.61c2.17-6.8,12-8.14,14.84-17"
          transform="translate(47.98 11.67)" fill="#a9b533"/>
    <path d="M-18.46,35.76c.79-.42,1.48-1,2.25-1.39s1-.44,1.39.28c.61,1.15-3.5,3.27-4.15,3.59-5.25,2.7-14.77,1-19.38,3.35a5.35,5.35,0,0,0-2.25,7.19c1.21,2.35,3,2,3.47,2.86a.52.52,0,0,1-.28.68c-1.13.6-4.3-.07-6.67-4.67a7.72,7.72,0,0,1,3.16-10.3c6.34-3.27,14.25,2.77,22.51-1.52"
          transform="translate(47.98 11.67)" fill="#a9b533"/>
    <path d="M-18.6,25.39c.84.26,1.74.36,2.57.62s1,.39.78,1.16c-.39,1.24-4.79-.16-5.44-.37-5.62-1.8-11.07-9.69-16.07-11.34a5.33,5.33,0,0,0-6.76,3.33l0,.06c-.8,2.53.71,3.59.43,4.49a.55.55,0,0,1-.68.29c-1.21-.39-3-3.1-1.38-8a7.72,7.72,0,0,1,9.6-5.06c6.8,2.18,8.14,12,17,14.85"
          transform="translate(47.98 11.67)" fill="#a9b533"/>
    <path d="M-11.43,18c.41.79,1,1.49,1.38,2.26s.44,1-.28,1.39c-1.14.59-3.26-3.52-3.57-4.16-2.76-5.25-1-14.77-3.36-19.39a5.32,5.32,0,0,0-7.11-2.42l-.08,0c-2.36,1.21-2,3-2.87,3.47A.56.56,0,0,1-28-1.13c-.59-1.14.07-4.31,4.67-6.68a7.71,7.71,0,0,1,10.4,3.2C-9.69,1.73-15.7,9.66-11.43,18"
          transform="translate(47.98 11.67)" fill="#a9b533"/>
</svg>